<svg viewBox="0 0 1440 320" xmlns="http://www.w3.org/2000/svg">
  <path fill="#264e3f" d="M0,192L30,197.3C60,203,120,213,180,218.7C240,224,300,224,360,218.7C420,213,480,203,540,197.3C600,192,660,192,720,181.3C780,171,840,149,900,160C960,171,1020,213,1080,234.7C1140,256,1200,256,1260,229.3C1320,203,1380,149,1410,122.7L1440,96L1440,320L1410,320C1380,320,1320,320,1260,320C1200,320,1140,320,1080,320C1020,320,960,320,900,320C840,320,780,320,720,320C660,320,600,320,540,320C480,320,420,320,360,320C300,320,240,320,180,320C120,320,60,320,30,320L0,320Z"></path>
</svg>
